<svg xmlns="http://www.w3.org/2000/svg" xmlns:xlink="http://www.w3.org/1999/xlink" width="31" height="31" viewBox="0 0 31 31">
  <defs>
    <clipPath id="clip-path">
      <rect id="Rectangle_95" data-name="Rectangle 95" width="31" height="31" transform="translate(417 2070)" fill="none" stroke="#707070" stroke-width="1"/>
    </clipPath>
  </defs>
  <g id="Mask_Group_1" data-name="Mask Group 1" transform="translate(-417 -2070)" clip-path="url(#clip-path)">
    <path id="facebook-135" d="M23.33,38.09h4.832v0c-.82,0-2.767,0-4.832,0ZM14.781,7.111a12.427,12.427,0,0,0-2.028.176,6.992,6.992,0,0,0-1.932.621,7.069,7.069,0,0,0-2.9,2.9A7.063,7.063,0,0,0,7.3,12.739a12.447,12.447,0,0,0-.176,2.028c0,.157,0,.3-.006.53L7.11,28.92c0,.172,0,.36,0,.566.006.493.009.7.012.929A12.448,12.448,0,0,0,7.3,32.444c.058.3.121.587.2.866a6.134,6.134,0,0,0,.418,1.063,7.069,7.069,0,0,0,2.9,2.9,7.066,7.066,0,0,0,1.932.621,12.442,12.442,0,0,0,2.028.175l.929.012c.469,0,.854.006,1.138.006h6.479V26.069h-3.9v-4.5H23.3V17.389a5.461,5.461,0,0,1,5.691-5.513l4.154.091v4.317H29.972a1.916,1.916,0,0,0-1.662,1.935v3.354h4.68l-.666,4.5H28.162V38.09h.2c.285,0,.669,0,1.138-.006.391,0,.6-.006.784-.006.049,0,.1,0,.148,0a12.428,12.428,0,0,0,2.028-.176,6.992,6.992,0,0,0,1.931-.621,7.071,7.071,0,0,0,2.9-2.9,7.064,7.064,0,0,0,.621-1.931,12.432,12.432,0,0,0,.176-2.028c0-.233.006-.436.012-.929,0-.469.006-.854.006-1.138V16.508c0-.23,0-.5-.006-.811-.006-.493-.009-.7-.012-.929a12.428,12.428,0,0,0-.176-2.028,7,7,0,0,0-.621-1.931,7.07,7.07,0,0,0-2.9-2.9,7.058,7.058,0,0,0-1.931-.621,12.434,12.434,0,0,0-2.028-.176L29.5,7.1c-.472,0-.857-.006-1.141-.006H16.849c-.285,0-.669,0-1.138.006l-.929.012Zm0,0" transform="translate(409.892 2062.907)" fill="#fff"/>
  </g>
</svg>
