<svg xmlns="http://www.w3.org/2000/svg" width="104.175" height="18.791" viewBox="0 0 104.175 18.791">
  <g id="Group_34" data-name="Group 34" transform="translate(-60.015 -641)">
    <g id="Group_31" data-name="Group 31">
      <g id="Group_29" data-name="Group 29" transform="translate(60.015 642)">
        <path id="star-svgrepo-com" d="M9.614,1.573,11.591,5.58A.944.944,0,0,0,12.3,6.1l4.422.643a.944.944,0,0,1,.523,1.61l-3.2,3.119a.944.944,0,0,0-.271.836l.755,4.4a.944.944,0,0,1-1.37,1L9.207,15.625a.945.945,0,0,0-.879,0L4.373,17.7a.944.944,0,0,1-1.37-1l.755-4.4a.944.944,0,0,0-.271-.836L.287,8.349A.944.944,0,0,1,.81,6.739L5.232,6.1a.944.944,0,0,0,.711-.516L7.921,1.573A.944.944,0,0,1,9.614,1.573Z" transform="translate(-0.001 -1.047)" fill="#f2d510"/>
        <path id="star-svgrepo-com-2" data-name="star-svgrepo-com" d="M9.614,1.573,11.591,5.58A.944.944,0,0,0,12.3,6.1l4.422.643a.944.944,0,0,1,.523,1.61l-3.2,3.119a.944.944,0,0,0-.271.836l.755,4.4a.944.944,0,0,1-1.37,1L9.207,15.625a.945.945,0,0,0-.879,0L4.373,17.7a.944.944,0,0,1-1.37-1l.755-4.4a.944.944,0,0,0-.271-.836L.287,8.349A.944.944,0,0,1,.81,6.739L5.232,6.1a.944.944,0,0,0,.711-.516L7.921,1.573A.944.944,0,0,1,9.614,1.573Z" transform="translate(21.406 -1.047)" fill="#f2d510"/>
        <path id="star-svgrepo-com-3" data-name="star-svgrepo-com" d="M9.614,1.573,11.591,5.58A.944.944,0,0,0,12.3,6.1l4.422.643a.944.944,0,0,1,.523,1.61l-3.2,3.119a.944.944,0,0,0-.271.836l.755,4.4a.944.944,0,0,1-1.37,1L9.207,15.625a.945.945,0,0,0-.879,0L4.373,17.7a.944.944,0,0,1-1.37-1l.755-4.4a.944.944,0,0,0-.271-.836L.287,8.349A.944.944,0,0,1,.81,6.739L5.232,6.1a.944.944,0,0,0,.711-.516L7.921,1.573A.944.944,0,0,1,9.614,1.573Z" transform="translate(42.812 -1.047)" fill="#f2d510"/>
        <path id="star-svgrepo-com-4" data-name="star-svgrepo-com" d="M9.614,1.573,11.591,5.58A.944.944,0,0,0,12.3,6.1l4.422.643a.944.944,0,0,1,.523,1.61l-3.2,3.119a.944.944,0,0,0-.271.836l.755,4.4a.944.944,0,0,1-1.37,1L9.207,15.625a.945.945,0,0,0-.879,0L4.373,17.7a.944.944,0,0,1-1.37-1l.755-4.4a.944.944,0,0,0-.271-.836L.287,8.349A.944.944,0,0,1,.81,6.739L5.232,6.1a.944.944,0,0,0,.711-.516L7.921,1.573A.944.944,0,0,1,9.614,1.573Z" transform="translate(64.219 -1.047)" fill="#f2d510"/>
        <path id="star-svgrepo-com-5" data-name="star-svgrepo-com" d="M9.614,1.573,11.591,5.58A.944.944,0,0,0,12.3,6.1l4.422.643a.944.944,0,0,1,.523,1.61l-3.2,3.119a.944.944,0,0,0-.271.836l.755,4.4a.944.944,0,0,1-1.37,1L9.207,15.625a.945.945,0,0,0-.879,0L4.373,17.7a.944.944,0,0,1-1.37-1l.755-4.4a.944.944,0,0,0-.271-.836L.287,8.349A.944.944,0,0,1,.81,6.739L5.232,6.1a.944.944,0,0,0,.711-.516L7.921,1.573A.944.944,0,0,1,9.614,1.573Z" transform="translate(85.625 -1.047)" fill="none" stroke="#f2d510" stroke-width="2"/>
      </g>
    </g>
  </g>
</svg>
